<?xml version="1.0" encoding="UTF-8"?>
<svg xmlns="http://www.w3.org/2000/svg" xmlns:xlink="http://www.w3.org/1999/xlink" width="500px" height="307px" viewBox="0 0 500 307" version="1.1">
<defs>
<linearGradient id="linear0" gradientUnits="userSpaceOnUse" x1="1053.92" y1="1027.96" x2="1857.64" y2="1027.96" >
<stop offset="0" style="stopcolor:rgb(16.078431%,66.666667%,89.019608%);stopOpacity:1;"/>
<stop offset="0.498958" style="stopcolor:rgb(0%,44.313725%,74.117647%);stopOpacity:1;"/>
<stop offset="1" style="stopcolor:rgb(0%,31.764706%,82.352941%);stopOpacity:1;"/>
</linearGradient>
<linearGradient id="linear1" gradientUnits="userSpaceOnUse" x1="1517.92" y1="1034.18" x2="2329.93" y2="1034.18" >
<stop offset="0" style="stopcolor:rgb(16.078431%,66.666667%,89.019608%);stopOpacity:1;"/>
<stop offset="1" style="stopcolor:rgb(0%,32.941176%,81.568627%);stopOpacity:1;"/>
</linearGradient>
</defs>
<g id="surface1">
<rect x="0" y="0" width="500" height="307" style="fill:rgb(100%,100%,100%);fill-opacity:1;stroke:none;"/>
<path style=" stroke:none;fill-rule:nonzero;fill:rgb(100%,100%,100%);fill-opacity:1;" d="M 3.546875 0 L 503.546875 0 L 503.546875 307 L 3.546875 307 Z M 3.546875 0 "/>
<path style="fill:none;strokeWidth:113.93;strokeLinecap:butt;stroke-linejoin:miter;stroke:url(#linear0);stroke-miterlimit:4;" d="M 1642.879125 813.055082 C 1599.971063 762.019671 1542.733875 725.003817 1478.5965 706.812716 C 1414.432688 688.621615 1346.30325 690.073735 1282.985438 710.98426 C 1219.667625 731.894786 1164.069563 771.286836 1123.355813 824.091192 C 1082.6685 876.921951 1058.716125 940.736016 1054.618313 1007.269506 C 1050.546938 1073.829397 1066.48875 1140.098865 1100.4345 1197.497201 C 1134.353813 1254.895536 1184.71725 1300.808925 1244.99475 1329.296875 C 1305.298688 1357.811228 1372.74075 1367.580034 1438.623 1357.362391 C 1504.531688 1347.17115 1576.468125 1304.742849 1625.324625 1259.331102 M 1639.151438 809.015549 L 1856.626313 1031.876336 L 1741.358813 1141.762202 " transform="matrix(0.147754,0,0,0.147952,0,0)"/>
<path style="fill:none;strokeWidth:113.93;strokeLinecap:butt;stroke-linejoin:miter;stroke:url(#linear1);stroke-miterlimit:4;" d="M 1733.427563 1251.964895 C 1776.91725 1303.66036 1834.86825 1341.151453 1899.878063 1359.580174 C 1964.861438 1378.008894 2033.88975 1376.556774 2098.027125 1355.382227 C 2162.1645 1334.20768 2218.502813 1294.287587 2259.718875 1240.770371 C 2300.961375 1187.279558 2325.231 1122.620623 2329.35525 1055.215862 C 2333.505938 987.784698 2317.352625 920.670361 2282.957438 862.506362 C 2248.588688 804.368765 2197.564313 757.848127 2136.493688 728.990546 C 2075.423063 700.106563 2007.108563 690.205746 1940.353875 700.5554 C 1873.599188 710.878652 1799.283375 754.574257 1749.792375 800.566852 M 1737.208125 1256.057232 L 1516.904438 1030.292205 L 1630.691438 918.901415 " transform="matrix(0.147754,0,0,0.147952,0,0)"/>
</g>
</svg>
