<svg width="251" height="334.667" viewBox="0 0 251 334.667" fill="none" xmlns="http://www.w3.org/2000/svg">
  <g><path style="stroke: currentcolor; strokeWidth: 10; stroke-dasharray: none; strokeLinecap: round; stroke-dashoffset: 0; stroke-linejoin: round; stroke-miterlimit: 4; fillRule: evenodd; opacity: 1; fill: rgb(218, 85, 103); paint-order: stroke;" points="90,0 42.7975,13.9058 72.8115,52.9007 26.4503,36.4058 27.8115,85.5951 0,45 -27.8115,85.5951 -26.4503,36.4058 -72.8115,52.9007 -42.7975,13.9058 -90,0 -42.7975,-13.9058 -72.8115,-52.9007 -26.4503,-36.4058 -27.8115,-85.5951 0,-45 27.8115,-85.5951 26.4503,-36.4058 72.8115,-52.9007 42.7975,-13.9058 " d="M 2.162 11.5 L -4.131 13.45 L -0.13 18.916 L -6.311 16.604 L -6.13 23.5 L -9.838 17.809 L -13.546 23.5 L -13.365 16.604 L -19.546 18.916 L -15.545 13.45 L -21.838 11.5 L -15.545 9.55 L -19.546 4.084 L -13.364 6.396 L -13.546 -0.5 L -9.838 5.191 L -6.13 -0.5 L -6.311 6.396 L -0.13 4.084 L -4.131 9.55 L 2.162 11.5 Z"></path></g>
</svg>
