			 <svg xmlns="http://www.w3.org/2000/svg" enableBackground="new 0 0 512 512" viewBox="0 0 512 512" width="256" height="256"><linearGradient id="a" x1="128" x2="384" y1="255" y2="255" gradientTransform="matrix(1 0 0 -1 0 511)" gradientUnits="userSpaceOnUse"><stop offset="0" stopColor="#c9f7f5" class="stopColorc9f7f5 svgShape"></stop><stop offset="1" stopColor="#638fff" class="stopColor638fff svgShape"></stop></linearGradient><circle cx="256" cy="256" r="128" fill="url(#a)"></circle><linearGradient id="b" x1="230.4" x2="281.6" y1="472.605" y2="472.605" gradientTransform="matrix(1 0 0 -1 0 511)" gradientUnits="userSpaceOnUse"><stop offset="0" stopColor="#c9f7f5" class="stopColorc9f7f5 svgShape"></stop><stop offset="1" stopColor="#638fff" class="stopColor638fff svgShape"></stop></linearGradient><path fill="url(#b)" d="M256,76.791
			c-14.15,0-25.6-11.463-25.6-25.6V25.6C230.4,11.463,241.85,0,256,0c14.15,0,25.6,11.463,25.6,25.6v25.591
			C281.6,65.328,270.15,76.791,256,76.791z"></path><linearGradient id="c" x1="375.225" x2="444.525" y1="408.87" y2="408.87" gradientTransform="matrix(1 0 0 -1 0 511)" gradientUnits="userSpaceOnUse"><stop offset="0" stopColor="#c9f7f5" class="stopColorc9f7f5 svgShape"></stop><stop offset="1" stopColor="#638fff" class="stopColor638fff svgShape"></stop></linearGradient><path fill="url(#c)" d="M400.825,136.778
			c-6.55,0-13.1-2.5-18.1-7.5c-10-9.997-10-26.206,0-36.203l18.1-18.097c10-9.994,26.2-9.997,36.2,0.003
			c10,9.997,10,26.206,0,36.203l-18.1,18.097C413.925,134.278,407.375,136.778,400.825,136.778z"></path><linearGradient id="d" x1="435.2" x2="512" y1="255" y2="255" gradientTransform="matrix(1 0 0 -1 0 511)" gradientUnits="userSpaceOnUse"><stop offset="0" stopColor="#c9f7f5" class="stopColorc9f7f5 svgShape"></stop><stop offset="1" stopColor="#638fff" class="stopColor638fff svgShape"></stop></linearGradient><path fill="url(#d)" d="M486.4,281.6h-25.6
			c-14.15,0-25.6-11.463-25.6-25.6c0-14.137,11.45-25.6,25.6-25.6h25.6c14.15,0,25.6,11.463,25.6,25.6
			C512,270.137,500.55,281.6,486.4,281.6z"></path><linearGradient id="e" x1="375.225" x2="444.525" y1="101.13" y2="101.13" gradientTransform="matrix(1 0 0 -1 0 511)" gradientUnits="userSpaceOnUse"><stop offset="0" stopColor="#c9f7f5" class="stopColorc9f7f5 svgShape"></stop><stop offset="1" stopColor="#638fff" class="stopColor638fff svgShape"></stop></linearGradient><path fill="url(#e)" d="M418.925,444.519
			c-6.55,0-13.1-2.497-18.1-7.497l-18.1-18.097c-10-9.997-10-26.206,0-36.203c10-10,26.2-10.003,36.2-0.003l18.1,18.097
			c10,9.997,10,26.206,0,36.203C432.025,442.019,425.475,444.519,418.925,444.519z"></path><linearGradient id="f" x1="230.4" x2="281.6" y1="37.395" y2="37.395" gradientTransform="matrix(1 0 0 -1 0 511)" gradientUnits="userSpaceOnUse"><stop offset="0" stopColor="#c9f7f5" class="stopColorc9f7f5 svgShape"></stop><stop offset="1" stopColor="#638fff" class="stopColor638fff svgShape"></stop></linearGradient><path fill="url(#f)" d="M256,512c-14.15,0-25.6-11.463-25.6-25.6
			v-25.591c0-14.137,11.45-25.6,25.6-25.6c14.15,0,25.6,11.463,25.6,25.6V486.4C281.6,500.537,270.15,512,256,512z"></path><linearGradient id="g" x1="67.475" x2="136.775" y1="101.129" y2="101.129" gradientTransform="matrix(1 0 0 -1 0 511)" gradientUnits="userSpaceOnUse"><stop offset="0" stopColor="#c9f7f5" class="stopColorc9f7f5 svgShape"></stop><stop offset="1" stopColor="#638fff" class="stopColor638fff svgShape"></stop></linearGradient><path fill="url(#g)" d="M93.075,444.519
			c-6.55,0-13.1-2.5-18.1-7.5c-10-9.997-10-26.206,0-36.203l18.1-18.097c10-9.994,26.2-9.997,36.2,0.003
			c10,9.997,10,26.206,0,36.203l-18.1,18.097C106.175,442.019,99.625,444.519,93.075,444.519z"></path><g fill="#000000" class="color000 svgShape"><linearGradient id="h" x1="0" x2="76.8" y1="255" y2="255" gradientTransform="matrix(1 0 0 -1 0 511)" gradientUnits="userSpaceOnUse"><stop offset="0" stopColor="#c9f7f5" class="stopColorc9f7f5 svgShape"></stop><stop offset="1" stopColor="#638fff" class="stopColor638fff svgShape"></stop></linearGradient><path fill="url(#h)" d="M51.2,281.6H25.6
			C11.45,281.6,0,270.137,0,256c0-14.137,11.45-25.6,25.6-25.6h25.6c14.15,0,25.6,11.463,25.6,25.6
			C76.8,270.137,65.35,281.6,51.2,281.6z"></path></g><g fill="#000000" class="color000 svgShape"><linearGradient id="i" x1="67.475" x2="136.775" y1="408.871" y2="408.871" gradientTransform="matrix(1 0 0 -1 0 511)" gradientUnits="userSpaceOnUse"><stop offset="0" stopColor="#c9f7f5" class="stopColorc9f7f5 svgShape"></stop><stop offset="1" stopColor="#638fff" class="stopColor638fff svgShape"></stop></linearGradient><path fill="url(#i)" d="M111.175,136.778
			c-6.55,0-13.1-2.497-18.1-7.497l-18.1-18.097c-10-9.997-10-26.206,0-36.203c10-10,26.2-10.003,36.2-0.003l18.1,18.097
			c10,9.997,10,26.206,0,36.203C124.275,134.278,117.725,136.778,111.175,136.778z"></path></g></svg> 