<svg xmlns="http://www.w3.org/2000/svg" enableBackground="new 0 0 512 512" viewBox="0 0 512 512" width="256" height="256"><linearGradient id="a" x1="188.265" x2="366.585" y1="167.488" y2="167.488" gradientTransform="matrix(1 0 0 -1 0 511)" gradientUnits="userSpaceOnUse"><stop offset="0" stopColor="#e3e4e6" class="stopColore3e4e6 svgShape"></stop><stop offset="1" stopColor="#638fff" class="stopColor638fff svgShape"></stop></linearGradient><path fill="url(#a)" d="M340.95,400.891c-3.85,0-7.75-0.872-11.425-2.709l-127.1-63.544
			c-12.65-6.322-17.775-21.7-11.45-34.344c6.3-12.647,21.7-17.778,34.35-11.45l127.1,63.544c12.65,6.322,17.775,21.7,11.45,34.344
			C359.4,395.703,350.35,400.891,340.95,400.891z"></path><linearGradient id="b" x1="188.265" x2="366.585" y1="342.51" y2="342.51" gradientTransform="matrix(1 0 0 -1 0 511)" gradientUnits="userSpaceOnUse"><stop offset="0" stopColor="#e3e4e6" class="stopColore3e4e6 svgShape"></stop><stop offset="1" stopColor="#638fff" class="stopColor638fff svgShape"></stop></linearGradient><path fill="url(#b)" d="M213.9,225.872
			c-9.4,0-18.425-5.188-22.925-14.156c-6.325-12.647-1.2-28.025,11.45-34.347l127.1-63.55c12.65-6.328,28.025-1.197,34.35,11.447
			c6.325,12.647,1.2,28.025-11.45,34.347l-127.1,63.55C221.65,225,217.75,225.872,213.9,225.872z"></path><linearGradient id="c" x1="0" x2="256" y1="255" y2="255" gradientTransform="matrix(1 0 0 -1 0 511)" gradientUnits="userSpaceOnUse"><stop offset="0" stopColor="#c9f7f5" class="stopColorc9f7f5 svgShape"></stop><stop offset="1" stopColor="#638fff" class="stopColor638fff svgShape"></stop></linearGradient><circle cx="128" cy="256" r="128" fill="url(#c)"></circle><linearGradient id="d" x1="307.2" x2="512" y1="408.6" y2="408.6" gradientTransform="matrix(1 0 0 -1 0 511)" gradientUnits="userSpaceOnUse"><stop offset="0" stopColor="#c9f7f5" class="stopColorc9f7f5 svgShape"></stop><stop offset="1" stopColor="#638fff" class="stopColor638fff svgShape"></stop></linearGradient><circle cx="409.6" cy="102.4" r="102.4" fill="url(#d)"></circle><g fill="#000000" class="color000 svgShape"><linearGradient id="e" x1="307.2" x2="512" y1="101.4" y2="101.4" gradientTransform="matrix(1 0 0 -1 0 511)" gradientUnits="userSpaceOnUse"><stop offset="0" stopColor="#c9f7f5" class="stopColorc9f7f5 svgShape"></stop><stop offset="1" stopColor="#638fff" class="stopColor638fff svgShape"></stop></linearGradient><circle cx="409.6" cy="409.6" r="102.4" fill="url(#e)"></circle></g></svg>